G04*
G04 #@! TF.GenerationSoftware,Altium Limited,Altium Designer,21.1.0 (24)*
G04*
G04 Layer_Color=16711935*
%FSLAX25Y25*%
%MOIN*%
G70*
G04*
G04 #@! TF.SameCoordinates,BF14F638-7A53-41FE-949C-024BEFE5BD35*
G04*
G04*
G04 #@! TF.FilePolarity,Negative*
G04*
G01*
G75*
G04:AMPARAMS|DCode=14|XSize=81.73mil|YSize=278.58mil|CornerRadius=21.18mil|HoleSize=0mil|Usage=FLASHONLY|Rotation=0.000|XOffset=0mil|YOffset=0mil|HoleType=Round|Shape=RoundedRectangle|*
%AMROUNDEDRECTD14*
21,1,0.08173,0.23622,0,0,0.0*
21,1,0.03937,0.27858,0,0,0.0*
1,1,0.04236,0.01968,-0.11811*
1,1,0.04236,-0.01968,-0.11811*
1,1,0.04236,-0.01968,0.11811*
1,1,0.04236,0.01968,0.11811*
%
%ADD14ROUNDEDRECTD14*%
%ADD15C,0.06598*%
%ADD16C,0.07386*%
%ADD17C,0.05811*%
%ADD18R,0.10142X0.06598*%
%ADD19O,0.10142X0.06598*%
%ADD20R,0.06598X0.06598*%
D14*
X29169Y19685D02*
D03*
X19169D02*
D03*
X69169D02*
D03*
X59169D02*
D03*
X49169D02*
D03*
X99169D02*
D03*
X89169D02*
D03*
X129169D02*
D03*
X119169D02*
D03*
X159169D02*
D03*
X149169D02*
D03*
X189169D02*
D03*
X179169D02*
D03*
X219169D02*
D03*
X209169D02*
D03*
X79169D02*
D03*
X39169D02*
D03*
X9169D02*
D03*
X199169D02*
D03*
X169169D02*
D03*
X139169D02*
D03*
X109169D02*
D03*
D15*
X15500Y267000D02*
D03*
X16000Y207000D02*
D03*
X305000Y475000D02*
D03*
Y435000D02*
D03*
X25000Y390000D02*
D03*
Y430000D02*
D03*
X85000Y125000D02*
D03*
X125000D02*
D03*
X330000Y195000D02*
D03*
Y235000D02*
D03*
X387500Y185000D02*
D03*
Y225000D02*
D03*
X400000Y185000D02*
D03*
Y225000D02*
D03*
X390000Y325000D02*
D03*
Y365000D02*
D03*
X15000Y390000D02*
D03*
Y430000D02*
D03*
X125000Y138929D02*
D03*
X85000D02*
D03*
X337500Y277500D02*
D03*
X377500D02*
D03*
X390000Y295000D02*
D03*
Y255000D02*
D03*
X400000Y295000D02*
D03*
Y255000D02*
D03*
X390000Y385000D02*
D03*
Y425000D02*
D03*
X120000Y375000D02*
D03*
Y395000D02*
D03*
X165000Y405000D02*
D03*
X145000D02*
D03*
X240000Y295000D02*
D03*
X220000D02*
D03*
X365000Y170000D02*
D03*
X345000D02*
D03*
X90000Y165000D02*
D03*
X70000D02*
D03*
X165000D02*
D03*
X145000D02*
D03*
X165000Y295000D02*
D03*
X145000D02*
D03*
X240000Y170000D02*
D03*
X220000D02*
D03*
X240000Y405000D02*
D03*
X220000D02*
D03*
X300000Y170000D02*
D03*
X280000D02*
D03*
X365000Y295000D02*
D03*
X345000D02*
D03*
X365000Y405000D02*
D03*
X345000D02*
D03*
X130000Y275000D02*
D03*
Y265000D02*
D03*
Y255000D02*
D03*
Y245000D02*
D03*
Y235000D02*
D03*
Y225000D02*
D03*
Y215000D02*
D03*
Y205000D02*
D03*
X55000Y275000D02*
D03*
Y265000D02*
D03*
Y255000D02*
D03*
Y245000D02*
D03*
Y235000D02*
D03*
Y225000D02*
D03*
Y215000D02*
D03*
Y205000D02*
D03*
X205000Y275000D02*
D03*
Y265000D02*
D03*
Y255000D02*
D03*
Y245000D02*
D03*
Y235000D02*
D03*
Y225000D02*
D03*
Y215000D02*
D03*
Y205000D02*
D03*
D16*
X315000Y475000D02*
D03*
Y435000D02*
D03*
X325000Y475000D02*
D03*
Y435000D02*
D03*
X295000Y475000D02*
D03*
Y435000D02*
D03*
X132500Y445000D02*
D03*
Y485000D02*
D03*
X125000Y110803D02*
D03*
X85000D02*
D03*
X112500Y485000D02*
D03*
Y445000D02*
D03*
X122500Y485000D02*
D03*
Y445000D02*
D03*
X285000Y475000D02*
D03*
Y435000D02*
D03*
D17*
X325000Y410000D02*
D03*
X320000Y415000D02*
D03*
X315000Y410000D02*
D03*
D18*
X375000Y425000D02*
D03*
X100000Y295000D02*
D03*
X175000Y185000D02*
D03*
Y425000D02*
D03*
X100000Y185000D02*
D03*
X175000Y315000D02*
D03*
X250000Y185000D02*
D03*
X375000Y315000D02*
D03*
Y185000D02*
D03*
X250000Y315000D02*
D03*
Y425000D02*
D03*
X310000Y185000D02*
D03*
D19*
X375000Y435000D02*
D03*
Y445000D02*
D03*
Y455000D02*
D03*
Y465000D02*
D03*
Y475000D02*
D03*
Y485000D02*
D03*
X345000Y425000D02*
D03*
Y435000D02*
D03*
Y445000D02*
D03*
Y455000D02*
D03*
Y465000D02*
D03*
Y475000D02*
D03*
Y485000D02*
D03*
X100000Y435000D02*
D03*
Y445000D02*
D03*
Y455000D02*
D03*
Y465000D02*
D03*
Y475000D02*
D03*
Y485000D02*
D03*
Y425000D02*
D03*
Y415000D02*
D03*
Y405000D02*
D03*
Y395000D02*
D03*
Y385000D02*
D03*
Y375000D02*
D03*
Y365000D02*
D03*
Y355000D02*
D03*
Y345000D02*
D03*
Y335000D02*
D03*
Y325000D02*
D03*
Y315000D02*
D03*
Y305000D02*
D03*
X40000Y485000D02*
D03*
Y475000D02*
D03*
Y465000D02*
D03*
Y455000D02*
D03*
Y445000D02*
D03*
Y435000D02*
D03*
Y425000D02*
D03*
Y415000D02*
D03*
Y405000D02*
D03*
Y395000D02*
D03*
Y385000D02*
D03*
Y375000D02*
D03*
Y365000D02*
D03*
Y355000D02*
D03*
Y345000D02*
D03*
Y335000D02*
D03*
Y325000D02*
D03*
Y315000D02*
D03*
Y305000D02*
D03*
Y295000D02*
D03*
X145000Y215000D02*
D03*
Y205000D02*
D03*
Y195000D02*
D03*
Y185000D02*
D03*
Y225000D02*
D03*
Y235000D02*
D03*
X175000Y195000D02*
D03*
Y205000D02*
D03*
Y215000D02*
D03*
Y225000D02*
D03*
Y235000D02*
D03*
Y245000D02*
D03*
X145000D02*
D03*
Y255000D02*
D03*
Y265000D02*
D03*
Y275000D02*
D03*
X175000D02*
D03*
Y265000D02*
D03*
Y255000D02*
D03*
Y435000D02*
D03*
Y445000D02*
D03*
Y455000D02*
D03*
Y465000D02*
D03*
Y475000D02*
D03*
Y485000D02*
D03*
X145000Y425000D02*
D03*
Y435000D02*
D03*
Y445000D02*
D03*
Y455000D02*
D03*
Y465000D02*
D03*
Y475000D02*
D03*
Y485000D02*
D03*
X70000Y215000D02*
D03*
Y205000D02*
D03*
Y195000D02*
D03*
Y185000D02*
D03*
Y225000D02*
D03*
Y235000D02*
D03*
X100000Y195000D02*
D03*
Y205000D02*
D03*
Y215000D02*
D03*
Y225000D02*
D03*
Y235000D02*
D03*
Y245000D02*
D03*
X70000D02*
D03*
Y255000D02*
D03*
Y265000D02*
D03*
Y275000D02*
D03*
X100000D02*
D03*
Y265000D02*
D03*
Y255000D02*
D03*
X145000Y315000D02*
D03*
Y325000D02*
D03*
Y375000D02*
D03*
Y385000D02*
D03*
Y335000D02*
D03*
Y345000D02*
D03*
Y355000D02*
D03*
Y365000D02*
D03*
X175000Y385000D02*
D03*
Y325000D02*
D03*
Y335000D02*
D03*
Y345000D02*
D03*
Y355000D02*
D03*
Y365000D02*
D03*
Y375000D02*
D03*
X220000Y215000D02*
D03*
Y205000D02*
D03*
Y195000D02*
D03*
Y185000D02*
D03*
Y225000D02*
D03*
Y235000D02*
D03*
X250000Y195000D02*
D03*
Y205000D02*
D03*
Y215000D02*
D03*
Y225000D02*
D03*
Y235000D02*
D03*
Y245000D02*
D03*
X220000D02*
D03*
Y255000D02*
D03*
Y265000D02*
D03*
Y275000D02*
D03*
X250000D02*
D03*
Y265000D02*
D03*
Y255000D02*
D03*
X375000Y325000D02*
D03*
Y335000D02*
D03*
Y345000D02*
D03*
Y355000D02*
D03*
Y365000D02*
D03*
Y375000D02*
D03*
X345000Y315000D02*
D03*
Y325000D02*
D03*
Y335000D02*
D03*
Y345000D02*
D03*
Y355000D02*
D03*
Y365000D02*
D03*
Y375000D02*
D03*
X375000Y245000D02*
D03*
Y235000D02*
D03*
Y225000D02*
D03*
Y215000D02*
D03*
Y205000D02*
D03*
Y195000D02*
D03*
Y255000D02*
D03*
X345000Y235000D02*
D03*
Y225000D02*
D03*
Y215000D02*
D03*
Y205000D02*
D03*
Y255000D02*
D03*
Y245000D02*
D03*
Y195000D02*
D03*
Y185000D02*
D03*
X250000Y325000D02*
D03*
Y335000D02*
D03*
Y345000D02*
D03*
Y355000D02*
D03*
Y365000D02*
D03*
Y375000D02*
D03*
X220000Y355000D02*
D03*
Y365000D02*
D03*
Y375000D02*
D03*
Y315000D02*
D03*
Y325000D02*
D03*
Y335000D02*
D03*
Y345000D02*
D03*
X250000Y435000D02*
D03*
Y445000D02*
D03*
Y455000D02*
D03*
Y465000D02*
D03*
Y475000D02*
D03*
Y485000D02*
D03*
X220000Y425000D02*
D03*
Y435000D02*
D03*
Y445000D02*
D03*
Y455000D02*
D03*
Y465000D02*
D03*
Y475000D02*
D03*
Y485000D02*
D03*
X310000Y195000D02*
D03*
Y205000D02*
D03*
Y215000D02*
D03*
Y225000D02*
D03*
Y235000D02*
D03*
Y245000D02*
D03*
X280000D02*
D03*
Y255000D02*
D03*
Y265000D02*
D03*
Y275000D02*
D03*
X310000D02*
D03*
Y265000D02*
D03*
Y255000D02*
D03*
X280000Y195000D02*
D03*
Y235000D02*
D03*
Y225000D02*
D03*
Y215000D02*
D03*
Y205000D02*
D03*
Y185000D02*
D03*
D20*
X130000Y195000D02*
D03*
X55000D02*
D03*
X205000D02*
D03*
M02*
