M48
;Layer_Color=9474304
;FILE_FORMAT=2:5
INCH,TZ
;TYPE=PLATED
T1F00S00C0.01181
T2F00S00C0.01575
T3F00S00C0.03150
T4F00S00C0.03346
T5F00S00C0.03543
%
T01
X26000Y208000
X88000Y199500
X86000Y265000
X87500Y308439
X59500Y292000
X291770Y310000
X346135Y285500
X366602Y285000
X364275Y222000
X383602Y208000
X394500Y242192
X333619Y250276
X330518Y213015
X335500Y174885
X325000Y162500
X308500Y163000
X355874Y163500
X407000Y168000
X332000Y322192
X331500Y348500
X328500Y362500
X333000Y375500
X335000Y390500
X350000Y394000
X363500Y395124
X333000Y451000
X392296Y460500
X290906Y364569
Y350000
X312384Y334491
X213500Y329500
X211500Y351000
X210000Y365000
X203000Y376500
X185000Y375500
X206500Y406500
Y423000
X206000Y437500
X208000Y457000
X229197Y462192
X126500Y455000
X127500Y433500
X114000Y435000
X68500Y446500
X63000Y453972
X56000Y457547
X57272Y442192
X66547Y465000
X54000Y480500
X22724Y497500
X108500Y475000
X117000
X126500
X136500
X182500Y471000
X203000Y480500
X263500Y470904
T02
X139000Y85000
X149500
X159500
X169000
X179000
X189000
X199500
X209500
X205000Y106500
X214000Y133000
Y138500
Y143500
Y148500
X50439Y69561
X182000Y190276
X264500Y205000
Y220500
X267000Y240500
X269000Y250500
X208500Y269500
X132500Y295000
X129412Y308588
X272500Y269000
Y260000
X313814Y283814
X295000Y199500
X327500Y183000
X334500Y330500
X311953Y345000
Y355000
X305547Y382500
X309000Y391547
X312543Y394500
X279500Y365000
X263000Y369500
X260000Y360000
X266000Y380000
X269000Y390500
X257088Y397412
X261047Y439724
X258000Y450000
X269500Y465000
X195500Y444500
X192000Y440000
X181500Y450000
X132500Y429500
Y339724
X188000Y353500
X191732Y357000
X195862Y353500
X201953Y352500
X63000Y355000
X66500Y345000
X70000Y335000
X74000Y325000
X59500Y365000
X56000Y375000
X52500Y385000
X63000Y460500
X79500Y450500
Y470500
X188000Y491000
X241500Y468757
T03
X125000Y110803
Y138929
X165000Y120500
X219169Y107500
X85000Y110803
Y138929
X7500Y60000
X70000Y165000
X90000
X98000Y171496
X100000Y185000
Y195000
Y205000
Y215000
Y225000
Y235000
Y245000
Y255000
Y265000
Y275000
Y295000
Y305000
X40000
Y295000
X55000Y275000
Y265000
Y255000
Y245000
Y235000
Y225000
Y215000
Y205000
Y195000
X70000
Y205000
Y215000
Y225000
Y235000
Y245000
Y255000
Y265000
Y275000
Y185000
X130000Y195000
Y205000
Y215000
Y225000
Y235000
Y245000
Y255000
Y265000
Y275000
X145000
Y265000
Y255000
Y245000
Y235000
Y225000
Y215000
Y205000
Y195000
Y185000
Y165000
X165000
X175000Y185000
Y195000
Y205000
Y215000
Y225000
Y235000
Y245000
Y255000
Y265000
Y275000
X165000Y295000
X145000
X220000
X240000
X250000Y275000
Y265000
Y255000
Y245000
Y235000
Y225000
Y215000
Y205000
Y195000
Y185000
X240000Y170000
X220000
Y185000
Y195000
Y205000
Y215000
Y225000
Y235000
Y245000
Y255000
Y265000
Y275000
X205000
Y265000
Y255000
Y245000
Y235000
Y225000
Y215000
Y205000
Y195000
X280000
Y205000
Y215000
Y225000
Y235000
Y245000
Y255000
Y265000
Y275000
X310000
Y265000
Y255000
Y245000
Y235000
Y225000
Y215000
Y205000
Y195000
Y185000
X300000Y170000
X280000
Y185000
X345000
Y195000
Y205000
Y215000
Y225000
Y235000
Y245000
Y255000
X337500Y277500
X345000Y295000
X365000
X390000
X400000
X377500Y277500
X375000Y255000
Y245000
Y235000
Y225000
Y215000
Y205000
Y195000
Y185000
X365000Y170000
X345000
X390000Y255000
X400000
X375000Y315000
Y325000
Y335000
Y345000
Y355000
Y365000
Y375000
X390000Y385000
Y425000
X375000
Y435000
Y445000
Y455000
Y465000
X345000
Y455000
Y445000
Y435000
Y425000
Y405000
X365000
X325000Y410000
X320000Y415000
X315000Y410000
Y435000
X305000
X295000
X285000
X274000Y415000
X325000Y435000
X345000Y375000
Y365000
Y355000
Y345000
Y335000
Y325000
Y315000
X250000
Y325000
Y335000
Y345000
Y355000
Y365000
Y375000
X220000
Y365000
Y355000
Y345000
Y335000
Y325000
Y315000
X175000
Y325000
Y335000
Y345000
Y355000
Y365000
Y375000
Y385000
X155000Y375000
X145000
Y385000
Y405000
X165000
X175000Y425000
Y435000
Y445000
Y455000
Y465000
X145000
Y455000
Y445000
Y435000
Y425000
X132500Y445000
X122500
X120000Y395000
Y375000
X145000Y365000
Y355000
Y345000
Y335000
Y325000
Y315000
X220000Y405000
X240000
X250000Y425000
Y435000
Y445000
Y455000
Y465000
X220000
Y455000
Y445000
Y435000
Y425000
X100000
Y435000
Y445000
Y455000
Y465000
X112500Y445000
X100000Y415000
Y405000
Y395000
Y385000
Y375000
Y365000
Y355000
Y345000
Y335000
Y325000
Y315000
X40000
Y325000
Y335000
Y345000
Y355000
Y365000
Y375000
Y385000
Y395000
Y405000
Y415000
Y425000
Y435000
Y445000
Y455000
Y465000
X15000Y430000
Y390000
X80000Y395000
X100000Y475000
Y485000
X112500
X40000
Y475000
X122500Y485000
X132500
X145000
Y475000
X175000
Y485000
X220000
Y475000
X250000
Y485000
X285000Y475000
X295000
X305000
X315000
X325000
X345000
Y485000
X375000
Y475000
T04
X16000Y207000
X15500Y267000
T05
X125000Y125000
X85000
X330000Y195000
Y235000
X387500Y225000
X400000
Y185000
X387500
X390000Y325000
Y365000
X25000Y390000
Y430000
M30
