G04*
G04 #@! TF.GenerationSoftware,Altium Limited,Altium Designer,21.1.0 (24)*
G04*
G04 Layer_Color=16711935*
%FSLAX25Y25*%
%MOIN*%
G70*
G04*
G04 #@! TF.SameCoordinates,BF14F638-7A53-41FE-949C-024BEFE5BD35*
G04*
G04*
G04 #@! TF.FilePolarity,Positive*
G04*
G01*
G75*
%ADD10C,0.00394*%
D10*
X73894Y118740D02*
X73780Y119748D01*
X73445Y120705D01*
X72906Y121563D01*
X72189Y122280D01*
X71331Y122819D01*
X70374Y123154D01*
X69366Y123268D01*
X68359Y123154D01*
X67402Y122819D01*
X66543Y122280D01*
X65826Y121563D01*
X65287Y120705D01*
X64952Y119748D01*
X64839Y118740D01*
X64952Y117733D01*
X65287Y116776D01*
X65826Y115917D01*
X66543Y115200D01*
X67402Y114661D01*
X68359Y114326D01*
X69366Y114213D01*
X70374Y114326D01*
X71331Y114661D01*
X72189Y115200D01*
X72906Y115917D01*
X73445Y116776D01*
X73780Y117733D01*
X73894Y118740D01*
X31091Y85622D02*
X31007Y86626D01*
X30760Y87603D01*
X30355Y88526D01*
X29804Y89370D01*
X29121Y90112D01*
X28326Y90731D01*
X27439Y91210D01*
X26486Y91538D01*
X25492Y91704D01*
X24484D01*
X23490Y91538D01*
X22537Y91210D01*
X21651Y90731D01*
X20855Y90112D01*
X20173Y89370D01*
X19621Y88526D01*
X19217Y87603D01*
X18969Y86626D01*
X18886Y85622D01*
X18969Y84618D01*
X19217Y83641D01*
X19621Y82718D01*
X20173Y81874D01*
X20855Y81132D01*
X21651Y80513D01*
X22537Y80034D01*
X23490Y79706D01*
X24484Y79540D01*
X25492D01*
X26486Y79706D01*
X27439Y80034D01*
X28326Y80513D01*
X29121Y81132D01*
X29804Y81874D01*
X30355Y82718D01*
X30760Y83641D01*
X31007Y84618D01*
X31091Y85622D01*
X31716Y475000D02*
X31633Y476004D01*
X31386Y476981D01*
X30981Y477904D01*
X30430Y478748D01*
X29747Y479490D01*
X28952Y480109D01*
X28065Y480588D01*
X27112Y480916D01*
X26118Y481081D01*
X25110D01*
X24116Y480916D01*
X23163Y480588D01*
X22276Y480109D01*
X21481Y479490D01*
X20799Y478748D01*
X20247Y477904D01*
X19842Y476981D01*
X19595Y476004D01*
X19512Y475000D01*
X19595Y473996D01*
X19842Y473019D01*
X20247Y472096D01*
X20799Y471252D01*
X21481Y470510D01*
X22276Y469891D01*
X23163Y469412D01*
X24116Y469084D01*
X25110Y468919D01*
X26118D01*
X27112Y469084D01*
X28065Y469412D01*
X28952Y469891D01*
X29747Y470510D01*
X30430Y471252D01*
X30981Y472096D01*
X31386Y473019D01*
X31633Y473996D01*
X31716Y475000D01*
X396378Y485626D02*
X396264Y486633D01*
X395930Y487590D01*
X395390Y488449D01*
X394673Y489166D01*
X393815Y489705D01*
X392858Y490040D01*
X391850Y490154D01*
X390843Y490040D01*
X389886Y489705D01*
X389028Y489166D01*
X388311Y488449D01*
X387771Y487590D01*
X387436Y486633D01*
X387323Y485626D01*
X387436Y484619D01*
X387771Y483662D01*
X388311Y482803D01*
X389028Y482086D01*
X389886Y481547D01*
X390843Y481212D01*
X391850Y481098D01*
X392858Y481212D01*
X393815Y481547D01*
X394673Y482086D01*
X395390Y482803D01*
X395930Y483662D01*
X396264Y484619D01*
X396378Y485626D01*
X25004Y328126D02*
X24930Y329129D01*
X24712Y330111D01*
X24352Y331050D01*
X23860Y331927D01*
X23246Y332724D01*
X22521Y333422D01*
X21703Y334007D01*
X20809Y334467D01*
X19857Y334792D01*
X18868Y334974D01*
X17863Y335011D01*
X16863Y334901D01*
X15890Y334647D01*
X14964Y334253D01*
X14105Y333729D01*
X13332Y333086D01*
X12661Y332337D01*
X12106Y331498D01*
X11679Y330587D01*
X11389Y329624D01*
X11243Y328629D01*
Y327623D01*
X11389Y326628D01*
X11679Y325665D01*
X12106Y324754D01*
X12661Y323915D01*
X13332Y323166D01*
X14105Y322523D01*
X14964Y321999D01*
X15890Y321605D01*
X16863Y321351D01*
X17863Y321241D01*
X18868Y321278D01*
X19857Y321460D01*
X20809Y321785D01*
X21703Y322245D01*
X22521Y322830D01*
X23246Y323528D01*
X23860Y324324D01*
X24352Y325202D01*
X24712Y326141D01*
X24930Y327123D01*
X25004Y328126D01*
X300004D02*
X299931Y329129D01*
X299712Y330111D01*
X299353Y331050D01*
X298860Y331927D01*
X298246Y332724D01*
X297521Y333422D01*
X296703Y334007D01*
X295809Y334467D01*
X294857Y334792D01*
X293868Y334974D01*
X292863Y335011D01*
X291863Y334901D01*
X290890Y334647D01*
X289964Y334253D01*
X289105Y333729D01*
X288332Y333086D01*
X287661Y332337D01*
X287106Y331498D01*
X286679Y330587D01*
X286389Y329624D01*
X286243Y328629D01*
Y327623D01*
X286389Y326628D01*
X286679Y325665D01*
X287106Y324754D01*
X287661Y323915D01*
X288332Y323166D01*
X289105Y322523D01*
X289964Y321999D01*
X290890Y321605D01*
X291863Y321351D01*
X292863Y321241D01*
X293868Y321278D01*
X294857Y321460D01*
X295809Y321785D01*
X296703Y322245D01*
X297521Y322830D01*
X298246Y323528D01*
X298860Y324324D01*
X299353Y325202D01*
X299712Y326141D01*
X299931Y327123D01*
X300004Y328126D01*
X223339Y0D02*
X224314Y96D01*
X225252Y381D01*
X226116Y843D01*
X226874Y1464D01*
X227496Y2222D01*
X227958Y3087D01*
X228242Y4025D01*
X228339Y5000D01*
X0Y5000D02*
X96Y4025D01*
X381Y3087D01*
X843Y2222D01*
X1464Y1464D01*
X2222Y843D01*
X3087Y381D01*
X4025Y96D01*
X5000Y0D01*
X5142Y508858D02*
X4139Y508759D01*
X3175Y508467D01*
X2286Y507992D01*
X1506Y507352D01*
X867Y506573D01*
X391Y505684D01*
X99Y504719D01*
X-0Y503716D01*
X415354Y503700D02*
X415255Y504706D01*
X414962Y505674D01*
X414485Y506566D01*
X413843Y507347D01*
X413062Y507989D01*
X412170Y508466D01*
X411202Y508759D01*
X410196Y508858D01*
X410243Y153858D02*
X411240Y153956D01*
X412199Y154247D01*
X413083Y154720D01*
X413857Y155356D01*
X414493Y156130D01*
X414965Y157014D01*
X415256Y157973D01*
X415354Y158970D01*
X233343Y153858D02*
X232366Y153762D01*
X231428Y153477D01*
X230562Y153015D01*
X229804Y152393D01*
X229182Y151634D01*
X228719Y150769D01*
X228435Y149831D01*
X228339Y148854D01*
X5000Y0D02*
X223339Y0D01*
X228339Y5000D02*
Y148854D01*
X233343Y153858D02*
X410243D01*
X415354Y158970D02*
Y503700D01*
X5142Y508858D02*
X410196D01*
X-0Y5000D02*
Y503716D01*
M02*
